<?xml version="1.0" encoding="utf-8" ?>
<svg xmlns="http://www.w3.org/2000/svg" viewBox="0 0 64.21 29.08"><defs><style>.cls-1{fill:#007bff;}</style></defs><title>logo Omnias Fichier 1</title><g id="Calque_2" data-name="Calque 2"><g id="Calque_1-2" data-name="Calque 1"><path class="cls-1" d="M47.73,25.43s0-.06,0-.1a15.64,15.64,0,0,0-31.27,0L0,27.86l.16,1.05L16.8,26.34l.14,0,.13,0,1.56-.25a85.93,85.93,0,0,1,26.45,0l2.05.32.13,0,.13,0L64,29.08l.17-1Z"/><path class="cls-1" d="M32,8.13a11.27,11.27,0,0,0,.42-2,19.88,19.88,0,0,0,.11-2,17.45,17.45,0,0,0-.12-2A10.59,10.59,0,0,0,32,0a10.63,10.63,0,0,0-.42,2,17.43,17.43,0,0,0-.11,2,17.38,17.38,0,0,0,.11,2A10.47,10.47,0,0,0,32,8.13Z"/><path class="cls-1" d="M44.63,6.35c.57-.59,1.11-1.21,1.63-1.86a15,15,0,0,0,1.4-2.07,14.94,14.94,0,0,0-2,1.49C45,4.45,44.43,5,43.86,5.61s-1.11,1.21-1.62,1.86a15,15,0,0,0-1.4,2.07,16.49,16.49,0,0,0,2-1.49C43.47,7.51,44.06,6.94,44.63,6.35Z"/><path class="cls-1" d="M49.39,20.5a16.39,16.39,0,0,0,2.57.42c.85.08,1.7.11,2.56.11s1.71,0,2.56-.11a16.08,16.08,0,0,0,2.56-.42,17.29,17.29,0,0,0-2.56-.42C56.23,20,55.37,20,54.52,20s-1.71,0-2.56.11A17.64,17.64,0,0,0,49.39,20.5Z"/><path class="cls-1" d="M46.6,13.86a8.12,8.12,0,0,0,1.74-.49,14.46,14.46,0,0,0,1.59-.75,14.45,14.45,0,0,0,1.49-.95,8,8,0,0,0,1.33-1.22,8.11,8.11,0,0,0-1.74.48,12.89,12.89,0,0,0-1.59.76,13.86,13.86,0,0,0-1.49,1A8,8,0,0,0,46.6,13.86Z"/><path class="cls-1" d="M18.87,6.38c.57.59,1.16,1.16,1.79,1.7a15.06,15.06,0,0,0,2,1.49,15,15,0,0,0-1.4-2.07c-.52-.65-1.06-1.26-1.63-1.86s-1.16-1.16-1.79-1.7a14.24,14.24,0,0,0-2-1.49,15,15,0,0,0,1.4,2.07C17.75,5.17,18.3,5.78,18.87,6.38Z"/><path class="cls-1" d="M9,21.06c.85,0,1.71,0,2.56-.11a17.51,17.51,0,0,0,2.56-.42,17.51,17.51,0,0,0-2.56-.42C10.69,20,9.83,20,9,20s-1.71,0-2.56.11a16.39,16.39,0,0,0-2.57.42A16.39,16.39,0,0,0,6.42,21C7.27,21,8.12,21.06,9,21.06Z"/><path class="cls-1" d="M12.08,11.7a14.45,14.45,0,0,0,1.49,1,14.46,14.46,0,0,0,1.59.75,8.75,8.75,0,0,0,1.74.49,8.08,8.08,0,0,0-1.34-1.22,12.82,12.82,0,0,0-1.48-.95A12.89,12.89,0,0,0,12.49,11a8.27,8.27,0,0,0-1.74-.48A8,8,0,0,0,12.08,11.7Z"/></g></g></svg>