<?xml version="1.0" encoding="utf-8" ?>
<svg xmlns="http://www.w3.org/2000/svg" viewBox="0 0 859.89 235.53">
	<defs>
		<style>
			.cls-1{fill:#fff;}
		</style>
	</defs>
	<title>
		FacilityzLogo
	</title>
	<g id="Calque_2" data-name="Calque 2">
		<g id="Calque_2-2" data-name="Calque 2">
			<path class="cls-1" d="M609.92,85.05l.12,1.28c0,.54.07,1.06.11,1.59"/>
			<line class="cls-1" x1="624.19" y1="87.92" x2="625.53" y2="85.05"/>
			<path class="cls-1" d="M618.68,101.11c.37-.94.76-1.9,1.15-2.86"/>
			<path class="cls-1" d="M610.73,98.25c0,1,.09,1.94.13,2.86"/>
			<path class="cls-1" d="M611,105.25c.2,6.45.2,11.2.2,14.71h.47"/>
			<polygon class="cls-1" points="706.34 101.11 731.78 101.11 734.05 98.25 708.61 98.25 706.34 101.11"/>
			<polygon class="cls-1" points="719.06 85.05 716.79 87.92 742.23 87.92 744.5 85.05 719.06 85.05"/>
			<polygon class="cls-1" points="796.14 19.82 811.94 0 566.54 0 548.78 22.43 548.6 22.2 548.6 22.73 768.39 22.73 722.33 80.92 747.77 80.92 796.14 19.82"/>
			<polygon class="cls-1" points="599.94 235.53 842.32 235.53 859.89 213.33 859.89 212.81 643.37 212.81 728.51 105.25 703.07 105.25 599.94 235.53"/>
			<polygon class="cls-1" points="54.63 74.43 90.82 74.43 95.96 48.74 30.12 48.74 23.96 80.92 53.33 80.92 54.63 74.43"/>
			<polygon class="cls-1" points="52.5 85.05 23.17 85.05 22.62 87.92 51.92 87.92 52.5 85.05"/>
			<polygon class="cls-1" points="49.84 98.25 20.64 98.25 20.1 101.11 49.27 101.11 49.84 98.25"/>
			<polygon class="cls-1" points="0 206.11 29.42 206.11 42.03 140.74 76.11 140.74 80.78 116.22 46.23 116.22 48.44 105.25 19.3 105.25 0 206.11"/>
			<path class="cls-1" d="M111.86,98.25l-1.16,2.86h23.46l.91-2.86Z"/>
			<path class="cls-1" d="M138.29,87.92c.3-1,.6-1.92.89-2.87h-22L116,87.92Z"/>
			<path class="cls-1" d="M142.18,75.36h.47c0,1.76-.08,3.63-.15,5.56h23.6l-.34-32.17H131.91l-13,32.17h21.58"/>
			<path class="cls-1" d="M141.82,98.25c0,1-.08,1.92-.12,2.86h24.61l0-2.86Z"/>
			<path class="cls-1" d="M141.25,113.42l-.7,34.79H117.44l12.6-35c.82-2.18,1.77-4.9,2.77-7.94H109L68.17,206.11H96.66l13.77-36.42h29.19l-.47,36.42H167.4l-1.05-100.86H141.53C141.41,108.28,141.31,111.06,141.25,113.42Z"/>
			<path class="cls-1" d="M166.17,87.92l0-2.87H142.36c0,1-.07,1.9-.11,2.87Z"/>
			<path class="cls-1" d="M186.07,153.81c0,18.21,5.84,53.7,45.53,53.7,9.57,0,16.58-.93,21.71-3l.94-25.92c-3.74,1.63-10.27,2.57-15.88,2.57-15.87,0-21.24-13.55-21.24-33.86a111.49,111.49,0,0,1,7.79-42H193.49C188.75,119.37,186.07,135.68,186.07,153.81Z"/>
			<path class="cls-1" d="M258.92,74c6.3,0,10.5.7,13.54,2.1l8.17-25.45c-1.87-1.4-10-3.27-17.74-3.27A64.35,64.35,0,0,0,216,67.19a85.88,85.88,0,0,0-10.91,13.73h36.43C247,76.5,253.24,74,258.92,74Z"/>
			<path class="cls-1" d="M196.06,98.25c-.38.94-.73,1.9-1.1,2.86h31.79c.46-1,.92-1.93,1.41-2.86Z"/>
			<path class="cls-1" d="M234.67,87.92c.23-.29.44-.6.67-.89.55-.69,1.16-1.33,1.75-2H202.52c-.55,1-1.1,1.89-1.63,2.87Z"/>
			<polygon class="cls-1" points="321.92 87.92 322.47 85.05 293.29 85.05 292.74 87.92 321.92 87.92"/>
			<polygon class="cls-1" points="329.42 48.74 300.24 48.74 294.08 80.92 323.26 80.92 329.42 48.74"/>
			<polygon class="cls-1" points="270.12 206.11 299.3 206.11 318.61 105.25 289.42 105.25 270.12 206.11"/>
			<polygon class="cls-1" points="290.76 98.25 290.21 101.11 319.4 101.11 319.95 98.25 290.76 98.25"/>
			<polygon class="cls-1" points="327.31 206.11 394.79 206.11 399.69 180.66 361.17 180.66 375.72 105.25 346.47 105.25 327.31 206.11"/>
			<polygon class="cls-1" points="347.8 98.25 347.25 101.11 376.52 101.11 377.07 98.25 347.8 98.25"/>
			<polygon class="cls-1" points="379.06 87.92 379.62 85.05 350.31 85.05 349.76 87.92 379.06 87.92"/>
			<polygon class="cls-1" points="386.62 48.74 357.2 48.74 351.09 80.92 380.41 80.92 386.62 48.74"/>
			<polygon class="cls-1" points="429.91 98.25 429.36 101.11 458.54 101.11 459.09 98.25 429.91 98.25"/>
			<polygon class="cls-1" points="409.26 206.11 438.45 206.11 457.75 105.25 428.57 105.25 409.26 206.11"/>
			<polygon class="cls-1" points="468.56 48.74 439.38 48.74 433.22 80.92 462.41 80.92 468.56 48.74"/>
			<polygon class="cls-1" points="461.07 87.92 461.62 85.05 432.43 85.05 431.88 87.92 461.07 87.92"/>
			<polygon class="cls-1" points="534.4 76.29 561.72 76.29 567.09 48.74 483.27 48.74 477.9 76.29 505.45 76.29 504.56 80.92 533.52 80.92 534.4 76.29"/>
			<polygon class="cls-1" points="480.47 206.11 509.65 206.11 528.88 105.25 499.88 105.25 480.47 206.11"/>
			<polygon class="cls-1" points="501.23 98.25 500.67 101.11 529.67 101.11 530.22 98.25 501.23 98.25"/>
			<polygon class="cls-1" points="532.19 87.92 532.73 85.05 503.77 85.05 503.21 87.92 532.19 87.92"/>
			<polygon class="cls-1" points="606.54 48.74 575.49 48.74 580.59 80.92 609.54 80.92 606.54 48.74"/>
			<polygon class="cls-1" points="672.85 48.74 642.5 48.74 627.46 80.92 655.26 80.92 672.85 48.74"/>
			<path class="cls-1" d="M610.15,87.92c0-.53-.07-1-.11-1.59l-.12-1.28H581.25l.45,2.87Z"/>
			<polygon class="cls-1" points="651.43 87.92 653 85.05 625.53 85.05 624.18 87.92 651.43 87.92"/>
			<path class="cls-1" d="M611.68,120h-.47c0-3.51,0-8.26-.2-14.71H584.45l6.45,40.62-11.44,60.24h29.18l11-60L642,105.25H617.08"/>
			<path class="cls-1" d="M619.83,98.25c-.39,1-.78,1.92-1.15,2.86h25.53l1.57-2.86Z"/>
			<path class="cls-1" d="M583.34,98.25l.46,2.86h27.06c0-.92-.08-1.87-.13-2.86Z"/>
			<line class="cls-1" x1="624.05" y1="88.2" x2="624.19" y2="87.92"/>
		</g>
	</g>
</svg>