<?xml version="1.0" encoding="utf-8" ?>
<svg xmlns="http://www.w3.org/2000/svg" viewBox="0 0 544.2 132.45">
	<defs>
		<style>
			.cls-1{font-size:124.14px;font-family:ARDESTINE, AR DESTINE;letter-spacing:0.05em;}.cls-2{fill:#eb5b28;}</style>
	</defs>
	<title>Fichier 10</title>
	<g id="Calque_2" data-name="Calque 2">
		<g id="Calque_2-2" data-name="Calque 2">
			<text class="cls-1" transform="translate(109.75 101.17)" fill = "white">MNIAS</text>
			<path class="cls-2" d="M98.86,46.32V76.2a38.48,38.48,0,0,1-6.48,22.11A42.09,42.09,0,0,1,74.06,113q-11.78,5.2-27.28,5.18a75.77,75.77,0,0,1-13.18-1.09,61.2,61.2,0,0,0,17.47-4.6A41.94,41.94,0,0,0,69.35,97.79a32.89,32.89,0,0,0,3.24-5.94c.41-.52.79-1,1.16-1.6A24.05,24.05,0,0,0,77.6,76.73l.05-31.36A22.14,22.14,0,0,0,74.15,33a3.69,3.69,0,0,0-.27-.35,22.48,22.48,0,0,0-9.6-7.94,35.33,35.33,0,0,0-14.79-2.92,40.16,40.16,0,0,0-9.85,1.14,33.7,33.7,0,0,0-5,1.75,22.85,22.85,0,0,0-9.88,8.27A22.07,22.07,0,0,0,21.27,45.3V77.08a24.07,24.07,0,0,0,3.82,13.53,24.79,24.79,0,0,0,10.77,9.06,29,29,0,0,0,3.79,1.43A41.74,41.74,0,0,1,29,102.37a38.4,38.4,0,0,1-16.11-3.22A24.37,24.37,0,0,1,2.35,90.52,40.45,40.45,0,0,1,0,76.5L0,46.2A37.12,37.12,0,0,1,3.11,30.85a32.67,32.67,0,0,1,3.08-5.61,39.72,39.72,0,0,1,17.39-14A57.42,57.42,0,0,1,40.1,6.86a78.86,78.86,0,0,1,9.39-.56q14.71,0,25.89,5a39.65,39.65,0,0,1,17.36,14A36.36,36.36,0,0,1,98.86,46.32Z"/>
		</g>
	</g>
</svg>