<svg xmlns="http://www.w3.org/2000/svg" viewBox="0 0 126.11 263.89"><defs><style>.cls-1{fill:#386fb5;}.cls-15,.cls-2,.cls-3{fill:#fff;}.cls-3{font-size:8.09px;}.cls-15,.cls-19,.cls-3{font-family:MyriadPro-Regular, Myriad Pro;}.cls-4{letter-spacing:0em;}.cls-5{letter-spacing:0em;}.cls-6{letter-spacing:0.02em;}.cls-7{letter-spacing:0em;}.cls-8{letter-spacing:-0.01em;}.cls-9{letter-spacing:0em;}.cls-10{letter-spacing:0.01em;}.cls-11{letter-spacing:-0.04em;}.cls-12{letter-spacing:-0.01em;}.cls-13{letter-spacing:-0.01em;}.cls-14{letter-spacing:-0.01em;}.cls-15{font-size:8px;}.cls-16{letter-spacing:-0.01em;}.cls-17{letter-spacing:-0.01em;}.cls-18{fill:#b7b7b7;}.cls-19{font-size:5px;fill:#c4c4c4;}.cls-20{letter-spacing:-0.08em;}.cls-21{letter-spacing:-0.02em;}.cls-22{letter-spacing:0.03em;}.cls-23{letter-spacing:-0.02em;}.cls-24{letter-spacing:0em;}.cls-25{letter-spacing:0em;}.cls-26{letter-spacing:0.02em;}.cls-27{letter-spacing:0em;}</style></defs><title>Mockup FACILITYZ Smartphone</title><g id="Calque_2" data-name="Calque 2"><g id="Calque_2-2" data-name="Calque 2"><path class="cls-1" d="M16,1.5h94.08a13,13,0,0,1,13,13V30.17a0,0,0,0,1,0,0H3a0,0,0,0,1,0,0V14.46A13,13,0,0,1,16,1.5Z"/><text/><path class="cls-2" d="M10.42,18.25H18.5c.14,0,.81-.28.47-.28H10.9c-.15,0-.82.28-.48.28Z"/><path class="cls-2" d="M10.62,23.15H18.7c.41,0,.56-.52.07-.52H10.69c-.41,0-.56.52-.07.52Z"/><path class="cls-2" d="M10.52,20.71H18.6c.27,0,.76-.42.28-.42H10.8c-.28,0-.77.42-.28.42Z"/><rect class="cls-1" x="8.59" y="47.99" width="50.3" height="50.3" rx="8.44"/><text class="cls-3" transform="translate(24 75.29)">C<tspan class="cls-4" x="4.69" y="0">R</tspan><tspan x="9.08" y="0">AF</tspan></text><rect class="cls-1" x="67.23" y="48.27" width="50.3" height="50.3" rx="8.44"/><text class="cls-3" transform="translate(72.49 70.02)"><tspan class="cls-5">R</tspan><tspan x="4.38" y="0">ése</tspan><tspan class="cls-6" x="15.69" y="0">r</tspan><tspan class="cls-7" x="18.54" y="0">va</tspan><tspan x="26.27" y="0">tion </tspan><tspan x="9.64" y="9.71">de </tspan><tspan class="cls-8" x="19.97" y="9.71">v</tspan><tspan x="23.78" y="9.71">ol</tspan></text><rect class="cls-1" x="8.51" y="175.13" width="50.3" height="50.3" rx="8.44"/><text class="cls-3" transform="translate(25.46 196.88)"><tspan class="cls-9">E</tspan><tspan x="3.96" y="0">t</tspan><tspan class="cls-7" x="6.63" y="0">a</tspan><tspan x="10.5" y="0">ts </tspan><tspan class="cls-10" x="-13.34" y="9.71">d</tspan><tspan class="cls-11" x="-8.73" y="9.71">’</tspan><tspan x="-7.37" y="9.71">imp</tspan><tspan class="cls-8" x="5.87" y="9.71">r</tspan><tspan x="8.44" y="9.71">ession</tspan></text><rect class="cls-1" x="67.31" y="175.03" width="50.3" height="50.3" rx="8.44"/><text class="cls-3" transform="translate(83.15 196.78)"><tspan class="cls-12">A</tspan><tspan x="4.85" y="0">ut</tspan><tspan class="cls-8" x="11.99" y="0">r</tspan><tspan x="14.55" y="0">e </tspan><tspan x="-2.46" y="9.71">se</tspan><tspan class="cls-6" x="4.8" y="9.71">r</tspan><tspan x="7.65" y="9.71">vi</tspan><tspan class="cls-13" x="13.43" y="9.71">c</tspan><tspan x="17.01" y="9.71">e</tspan></text><rect class="cls-1" x="8.36" y="111.42" width="50.3" height="50.3" rx="8.44"/><text class="cls-3" transform="translate(13.57 134.69)"><tspan class="cls-5">R</tspan><tspan x="4.38" y="0">ése</tspan><tspan class="cls-6" x="15.69" y="0">r</tspan><tspan class="cls-7" x="18.54" y="0">va</tspan><tspan x="26.27" y="0">tion </tspan><tspan class="cls-10" x="7.98" y="9.71">d</tspan><tspan x="12.59" y="9.71">’ho</tspan><tspan class="cls-13" x="23.2" y="9.71">t</tspan><tspan x="25.83" y="9.71">el</tspan></text><rect class="cls-1" x="67.46" y="111.88" width="50.3" height="50.3" rx="8.44"/><text class="cls-3" transform="translate(72.87 133.63)"><tspan class="cls-14">L</tspan><tspan x="3.71" y="0">oc</tspan><tspan class="cls-7" x="11.77" y="0">a</tspan><tspan x="15.64" y="0">tion de </tspan><tspan class="cls-8" x="7.79" y="9.71">v</tspan><tspan x="11.6" y="9.71">oitu</tspan><tspan class="cls-8" x="25.07" y="9.71">r</tspan><tspan x="27.63" y="9.71">e</tspan></text><text class="cls-15" transform="translate(50.91 23.18)"><tspan class="cls-16">A</tspan><tspan class="cls-17" x="4.8" y="0">c</tspan><tspan x="8.34" y="0">cueil</tspan></text><path class="cls-18" d="M5.4,241.16H120.23c.17,0,.82-.32.47-.32H5.86c-.16,0-.82.32-.46.32Z"/><text class="cls-19" transform="translate(9.1 250.83)">© 2020 - <tspan class="cls-20" x="18.36" y="0">F</tspan><tspan class="cls-21" x="20.4" y="0">A</tspan><tspan x="23.39" y="0">CILI</tspan><tspan class="cls-22" x="31.04" y="0">T</tspan><tspan x="33.66" y="0">YZ - </tspan><tspan class="cls-23" x="42.79" y="0">P</tspan><tspan class="cls-24" x="45.37" y="0">r</tspan><tspan x="47.02" y="0">i</tspan><tspan class="cls-25" x="48.19" y="0">v</tspan><tspan x="50.58" y="0">a</tspan><tspan class="cls-26" x="52.99" y="0">c</tspan><tspan class="cls-27" x="55.32" y="0">y</tspan></text><path d="M108.83,0H17.28A17.3,17.3,0,0,0,0,17.28V246.61a17.3,17.3,0,0,0,17.28,17.28h91.55a17.3,17.3,0,0,0,17.28-17.28V17.28A17.3,17.3,0,0,0,108.83,0Zm14.28,246.61a14.29,14.29,0,0,1-14.28,14.28H17.28A14.3,14.3,0,0,1,3,246.61V17.28A14.29,14.29,0,0,1,17.28,3H29.5V4.83a8.67,8.67,0,0,0,8.67,8.67H87.94a8.67,8.67,0,0,0,8.67-8.67V3h12.22a14.29,14.29,0,0,1,14.28,14.28Z"/></g></g></svg>