<?xml version="1.0" encoding="utf-8" ?>
<svg xmlns="http://www.w3.org/2000/svg" viewBox="0 0 532.56 245.25">
	<defs>
		<style>
			.cls-1{fill:#1d1d1b;}.cls-2{fill:#eb5b28;}
		</style>
	</defs>
	<title>
		OmniasLogoNoir
	</title>
	<g id="Calque_2" data-name="Calque 2">
		<g id="Calque_4" data-name="Calque 4">
			<path class="cls-1" d="M154.7,121.41c0,31.18-19,47.92-42.25,47.92-24.17,0-40.91-18.76-40.91-46.3,0-28.89,17.82-47.79,42.12-47.79C138.63,75.24,154.7,94.28,154.7,121.41ZM84,122.76c0,19.57,10.53,37,29.16,37s29.16-17.15,29.16-37.8c0-18.22-9.45-37.12-29-37.12S84,102.92,84,122.76Z"/>
			<path class="cls-1" d="M246.63,127.89c-.67-12.69-1.48-28.08-1.48-39.28h-.27c-3.24,10.53-6.89,22-11.48,34.56l-16.06,44.14h-8.91L193.58,124c-4.32-13-7.83-24.57-10.39-35.37h-.27c-.27,11.34-.95,26.46-1.76,40.23l-2.43,39h-11.2l6.34-91h15l15.52,44c3.78,11.21,6.75,21.19,9.18,30.64h.27c2.43-9.18,5.67-19.16,9.72-30.64l16.2-44h15l5.67,91H248.79Z"/>
			<path class="cls-1" d="M278.5,167.85v-91h12.95l29,46a255.81,255.81,0,0,1,16.2,29.56l.4-.14c-1.08-12.15-1.35-23.22-1.35-37.39V76.86H346.8v91H334.92L306,121.68c-6.34-10.12-12.42-20.52-16.87-30.37l-.41.13c.68,11.48.81,22.41.81,37.53v38.88Z"/>
			<path class="cls-1" d="M379.07,76.86v91H367.19v-91Z"/>
			<path class="cls-1" d="M414.3,139.23l-9.45,28.62H392.7l31.05-91h14l31,91H456.29l-9.72-28.62Zm30-9.18-9-26.19c-2-5.94-3.38-11.34-4.73-16.6h-.27c-1.35,5.26-2.7,10.93-4.59,16.47l-8.91,26.32Z"/>
			<path class="cls-1" d="M480.72,153.54a39.91,39.91,0,0,0,20.93,5.94c12,0,19-6.35,19-15.53,0-8.37-4.86-13.36-17.14-17.95-14.85-5.4-24-13.23-24-25.92,0-14.17,11.74-24.7,29.43-24.7,9.18,0,16.06,2.16,20,4.45l-3.24,9.59a33.64,33.64,0,0,0-17.15-4.32c-12.42,0-17.14,7.42-17.14,13.63,0,8.51,5.53,12.69,18.09,17.55,15.39,5.94,23.08,13.37,23.08,26.73,0,14-10.26,26.32-31.72,26.32-8.78,0-18.36-2.7-23.22-5.94Z"/>
			<path class="cls-2" d="M27,122.63c0-57.17,133-103.5,297-103.5,73.53,0,140.81,9.31,192.68,24.74C463,17.05,382.52,0,292.5,0,131,0,0,54.9,0,122.63S131,245.25,292.5,245.25c90,0,170.53-17.05,224.18-43.87C464.81,216.81,397.53,226.13,324,226.13,160,226.13,27,179.79,27,122.63Z"/>
		</g>
	</g>
</svg>