<?xml version="1.0" encoding="utf-8" ?>
<svg xmlns="http://www.w3.org/2000/svg" viewBox="0 0 38.27 35.53">
	<defs>
		<style>.cls-1{fill:#ff7110;}</style>
	</defs>
	<title>logo Omnias Fichier 2</title>
	<g id="Calque_2" data-name="Calque 2">
		<g id="Calque_1-2" data-name="Calque 1">
			<path class="cls-1" d="M19.14,9.58a8.18,8.18,0,1,0,8.18,8.18A8.19,8.19,0,0,0,19.14,9.58Z"/>
			<path class="cls-1" d="M19.14,8.08a10.5,10.5,0,0,0,.41-2,15.29,15.29,0,0,0,.11-2,17,17,0,0,0-.11-2,10.35,10.35,0,0,0-.41-2,11.17,11.17,0,0,0-.42,2,19.38,19.38,0,0,0-.11,2,19.68,19.68,0,0,0,.11,2A10.53,10.53,0,0,0,19.14,8.08Z"/>
			<path class="cls-1" d="M19.14,27.45a11.17,11.17,0,0,0-.42,2,18.6,18.6,0,0,0,0,4,10.53,10.53,0,0,0,.42,2,10.5,10.5,0,0,0,.41-2,15.2,15.2,0,0,0,.11-2,17.09,17.09,0,0,0-.11-2A10.35,10.35,0,0,0,19.14,27.45Z"/>
			<path class="cls-1" d="M35.73,17.35c-.85-.08-1.7-.11-2.54-.11s-1.7,0-2.55.11a17,17,0,0,0-2.54.41,15.83,15.83,0,0,0,2.54.42c.85.07,1.7.11,2.55.11s1.69,0,2.54-.11a15.83,15.83,0,0,0,2.54-.42A15.81,15.81,0,0,0,35.73,17.35Z"/>
			<path class="cls-1" d="M7.63,18.18a16.14,16.14,0,0,0,2.55-.42,17.35,17.35,0,0,0-2.55-.41c-.84-.08-1.69-.11-2.54-.11s-1.7,0-2.55.11A16.18,16.18,0,0,0,0,17.76a16.21,16.21,0,0,0,2.54.42c.85.08,1.7.11,2.55.11S6.79,18.25,7.63,18.18Z"/>
			<path class="cls-1" d="M11.21,5.86c.48.66,1,1.29,1.53,1.91A15.44,15.44,0,0,0,14.53,9.5a15.38,15.38,0,0,0-1.12-2.22,24,24,0,0,0-1.35-2c-.48-.66-1-1.3-1.54-1.91A14.57,14.57,0,0,0,8.74,1.6,14.84,14.84,0,0,0,9.85,3.82C10.27,4.52,10.72,5.2,11.21,5.86Z"/>
			<path class="cls-1" d="M6,12.15a13.5,13.5,0,0,0,1.63.65,8.25,8.25,0,0,0,1.75.39A7.74,7.74,0,0,0,8,12.06a14.51,14.51,0,0,0-1.53-.86,14,14,0,0,0-1.62-.65,7.76,7.76,0,0,0-1.76-.38,8.26,8.26,0,0,0,1.4,1.13A13.36,13.36,0,0,0,6,12.15Z"/>
			<path class="cls-1" d="M25.53,7.77c.54-.62,1.06-1.25,1.54-1.91s.93-1.34,1.35-2A15.91,15.91,0,0,0,29.54,1.6a13.89,13.89,0,0,0-1.78,1.73,23.38,23.38,0,0,0-1.54,1.91,24.1,24.1,0,0,0-1.36,2A16.42,16.42,0,0,0,23.75,9.5,15.35,15.35,0,0,0,25.53,7.77Z"/>
			<path class="cls-1" d="M30.64,12.8a12.73,12.73,0,0,0,1.62-.65,12.68,12.68,0,0,0,1.53-.85,8.19,8.19,0,0,0,1.39-1.13,7.67,7.67,0,0,0-1.75.38,12.94,12.94,0,0,0-3.15,1.51,7.8,7.8,0,0,0-1.4,1.13A8.35,8.35,0,0,0,30.64,12.8Z"/>
			<path class="cls-1" d="M12.74,27.76c-.54.61-1.05,1.25-1.53,1.91s-.94,1.34-1.36,2a14.38,14.38,0,0,0-1.11,2.22,15.35,15.35,0,0,0,1.78-1.73c.54-.61,1.06-1.25,1.54-1.91s.93-1.34,1.35-2A15.38,15.38,0,0,0,14.53,26,15.44,15.44,0,0,0,12.74,27.76Z"/>
			<path class="cls-1" d="M7.64,22.72A13.5,13.5,0,0,0,6,23.37a15.19,15.19,0,0,0-1.52.86,8.26,8.26,0,0,0-1.4,1.13A7.76,7.76,0,0,0,4.85,25a14,14,0,0,0,1.62-.65A16.55,16.55,0,0,0,8,23.47a8.19,8.19,0,0,0,1.39-1.13A8.25,8.25,0,0,0,7.64,22.72Z"/>
			<path class="cls-1" d="M27.07,29.67c-.48-.66-1-1.3-1.54-1.91A15.35,15.35,0,0,0,23.75,26a16.42,16.42,0,0,0,1.11,2.22c.42.7.88,1.38,1.36,2a23.38,23.38,0,0,0,1.54,1.91,14.59,14.59,0,0,0,1.78,1.73,15.38,15.38,0,0,0-1.12-2.22Q27.79,30.66,27.07,29.67Z"/>
			<path class="cls-1" d="M32.26,23.37a12.73,12.73,0,0,0-1.62-.65,8.34,8.34,0,0,0-1.76-.38,8.26,8.26,0,0,0,1.4,1.13,15.19,15.19,0,0,0,1.52.86,13.5,13.5,0,0,0,1.63.65,7.67,7.67,0,0,0,1.75.38,8.19,8.19,0,0,0-1.39-1.13A14.29,14.29,0,0,0,32.26,23.37Z"/>
		</g>
	</g>
</svg>